<svg id="Layer_1" xmlns="http://www.w3.org/2000/svg" xmlns:xlink="http://www.w3.org/1999/xlink" viewBox="0 0 1653 529" style="enable-background:new 0 0 1653 529;"><style>.st0{fill:#6A3CE9;}
.st1{fill-rule:evenodd;clip-rule:evenodd;fill:#6A3CE9;}</style><g><path class="st0" d="M721.68 474.92c-30.93-.72-52.86-7.36-65.8-19.96-12.94-12.58-19.42-32.17-19.42-58.79V59.63L686.62 51v337.09c0 8.28.72 15.1 2.16 20.49 1.43 5.39 3.78 9.71 7.01 12.94 3.24 3.24 7.55 5.66 12.94 7.28 5.39 1.62 12.04 2.97 19.96 4.04L721.68 474.92z"/><path class="st0" d="M809.59 138.37c-8.99.0-16.64-2.97-22.92-8.9-6.29-5.93-9.44-13.93-9.44-24 0-10.06 3.14-18.07 9.44-24 6.29-5.93 13.93-8.9 22.92-8.9 8.98.0 16.63 2.97 22.92 8.9s9.44 13.94 9.44 24c0 10.07-3.15 18.07-9.44 24C826.21 135.41 818.57 138.37 809.59 138.37zM834.93 469.53h-50.16V189.07h50.16V469.53z"/><path class="st0" d="M946.03 138.37c-8.99.0-16.64-2.97-22.92-8.9-6.3-5.93-9.44-13.93-9.44-24 0-10.06 3.14-18.07 9.44-24 6.29-5.93 13.93-8.9 22.92-8.9 8.98.0 16.63 2.97 22.92 8.9s9.44 13.94 9.44 24c0 10.07-3.15 18.07-9.44 24C962.66 135.41 955.02 138.37 946.03 138.37zm25.35 331.16h-50.16V189.07h50.16V469.53z"/><path class="st0" d="M1057.67 197.16c11.5-2.87 26.78-5.93 45.84-9.17 19.05-3.24 40.99-4.85 65.8-4.85 22.29.0 40.8 3.15 55.55 9.44 14.74 6.29 26.51 15.1 35.33 26.43 8.81 11.33 15.01 24.9 18.61 40.72 3.59 15.83 5.39 33.26 5.39 52.32v157.49h-50.16v-146.7c0-17.26-1.17-32-3.51-44.23-2.34-12.22-6.2-22.11-11.6-29.66-5.39-7.55-12.59-13.03-21.57-16.45-8.99-3.41-20.14-5.12-33.44-5.12-5.39.0-10.97.19-16.72.54-5.76.36-11.24.81-16.45 1.35-5.22.54-9.89 1.17-14.02 1.89-4.14.72-7.1 1.26-8.9 1.62v236.77h-50.16V197.16z"/><path class="st0" d="M1351.6 329.84c0-24.81 3.59-46.47 10.79-64.99 7.19-18.51 16.72-33.89 28.58-46.11 11.86-12.22 25.53-21.39 40.99-27.51 15.45-6.11 31.28-9.17 47.46-9.17 37.75.0 66.69 11.78 86.83 35.33 20.13 23.55 30.2 59.42 30.2 107.6.0 2.16.0 4.95.0 8.36.0 3.42-.19 6.56-.54 9.44H1403.9c2.16 29.12 10.6 51.24 25.35 66.34 14.74 15.1 37.75 22.65 69.04 22.65 17.61.0 32.45-1.53 44.5-4.58 12.04-3.05 21.12-6.02 27.24-8.9l7.01 42.07c-6.12 3.24-16.81 6.66-32.09 10.25-15.29 3.59-32.63 5.39-52.05 5.39-24.46.0-45.57-3.69-63.37-11.06-17.8-7.36-32.45-17.53-43.96-30.47-11.51-12.94-20.05-28.32-25.62-46.11C1354.39 370.56 1351.6 351.06 1351.6 329.84zm192.55-27.51c.35-22.65-5.31-41.26-16.99-55.82-11.69-14.56-27.78-21.84-48.27-21.84-11.51.0-21.67 2.25-30.47 6.74-8.81 4.5-16.27 10.34-22.38 17.53-6.12 7.2-10.88 15.46-14.29 24.81-3.42 9.35-5.66 18.88-6.74 28.59h139.14z"/></g><g><path id="Bubble_1" class="st1" d="M428.63 50H97.71c-25.14.0-45.53 20.38-45.53 45.53v209.64c0 25.14 20.38 45.53 45.53 45.53h11.39v56.28c0 11.62 9.42 21.04 21.04 21.04 5.54.0 10.86-2.18 14.79-6.08L217 350.69h211.64c25.14.0 45.53-20.38 45.53-45.53V95.53C474.16 70.38 453.78 50 428.63 50zM374.12 175.72c-3.43.0-6.71-.64-9.72-1.81l-43.8 40.51c.6 2.24.92 4.59.92 7.01.0 14.9-12.08 26.97-26.97 26.97-14.9.0-26.97-12.08-26.97-26.97.0-1.31.09-2.6.27-3.86l-21.43-14.92c-4.36 3.03-9.66 4.81-15.38 4.81-4.07.0-7.92-.9-11.38-2.51l-42.21 39.03c1.13 2.98 1.75 6.2 1.75 9.58.0 14.9-12.08 26.97-26.97 26.97-14.9.0-26.97-12.08-26.97-26.97s12.08-26.97 26.97-26.97c3.88.0 7.57.82 10.9 2.3l42.5-39.31c-1.02-2.84-1.57-5.9-1.57-9.09.0-14.9 12.08-26.97 26.97-26.97S258 165.6 258 180.49c0 1.44-.11 2.85-.33 4.23l21.2 14.75c4.42-3.16 9.83-5.02 15.67-5.02 4.81.0 9.33 1.26 13.24 3.47l41.58-38.46c-1.43-3.29-2.22-6.91-2.22-10.73.0-14.9 12.08-26.97 26.97-26.97s26.97 12.08 26.97 26.97C401.09 163.64 389.01 175.72 374.12 175.72z"/><path class="st1" d="M380.14 412.93l62.33 57.1c5.08 4.65 11.59 7.18 18.43 7.18.41.0.82-.01 1.23-.03 7.29-.32 14.03-3.46 18.96-8.84 4.85-5.3 7.4-12.17 7.16-19.35l-1.19-36.66c26.29-3.95 46.51-26.68 46.51-54.05V203.4c0-26.91-19.55-49.32-45.19-53.82v23.2c13.06 4.05 22.58 16.24 22.58 30.62v154.88c0 17.67-14.37 32.04-32.04 32.04h-15.19l1.93 59.4c.04 1.24-.4 2.43-1.24 3.34-1.15 1.26-2.55 1.5-3.28 1.53-.73.03-2.14-.09-3.4-1.24l-68.82-63.04H226.48c-8.29.0-15.86-3.17-21.55-8.35L188.8 397.8c9.81 9.36 23.08 15.12 37.68 15.12H380.14z"/></g></svg>