<svg id="visual" viewBox="0 0 900 450" width="900" height="450" xmlns="http://www.w3.org/2000/svg" xmlns:xlink="http://www.w3.org/1999/xlink" version="1.1"><path d="M0 300L15 304.3C30 308.7 60 317.3 90 317.5C120 317.7 150 309.3 180 308.8C210 308.3 240 315.7 270 322.5C300 329.3 330 335.7 360 334.7C390 333.7 420 325.3 450 325C480 324.7 510 332.3 540 329.8C570 327.3 600 314.7 630 313C660 311.3 690 320.7 720 323.2C750 325.7 780 321.3 810 315C840 308.7 870 300.3 885 296.2L900 292L900 451L885 451C870 451 840 451 810 451C780 451 750 451 720 451C690 451 660 451 630 451C600 451 570 451 540 451C510 451 480 451 450 451C420 451 390 451 360 451C330 451 300 451 270 451C240 451 210 451 180 451C150 451 120 451 90 451C60 451 30 451 15 451L0 451Z" fill="#f4b3b3"></path><path d="M0 327L15 329.8C30 332.7 60 338.3 90 334.3C120 330.3 150 316.7 180 314.2C210 311.7 240 320.3 270 331.3C300 342.3 330 355.7 360 356.2C390 356.7 420 344.3 450 343.3C480 342.3 510 352.7 540 357.7C570 362.7 600 362.3 630 354.3C660 346.3 690 330.7 720 322.2C750 313.7 780 312.3 810 317.5C840 322.7 870 334.3 885 340.2L900 346L900 451L885 451C870 451 840 451 810 451C780 451 750 451 720 451C690 451 660 451 630 451C600 451 570 451 540 451C510 451 480 451 450 451C420 451 390 451 360 451C330 451 300 451 270 451C240 451 210 451 180 451C150 451 120 451 90 451C60 451 30 451 15 451L0 451Z" fill="#f7918f"></path><path d="M0 381L15 377.2C30 373.3 60 365.7 90 366C120 366.3 150 374.7 180 380.5C210 386.3 240 389.7 270 388.5C300 387.3 330 381.7 360 381.7C390 381.7 420 387.3 450 384.7C480 382 510 371 540 363.7C570 356.3 600 352.7 630 352.7C660 352.7 690 356.3 720 363.2C750 370 780 380 810 382.3C840 384.7 870 379.3 885 376.7L900 374L900 451L885 451C870 451 840 451 810 451C780 451 750 451 720 451C690 451 660 451 630 451C600 451 570 451 540 451C510 451 480 451 450 451C420 451 390 451 360 451C330 451 300 451 270 451C240 451 210 451 180 451C150 451 120 451 90 451C60 451 30 451 15 451L0 451Z" fill="#f56e6a"></path><path d="M0 400L15 398.7C30 397.3 60 394.7 90 395.8C120 397 150 402 180 404C210 406 240 405 270 407.5C300 410 330 416 360 418.8C390 421.7 420 421.3 450 414.8C480 408.3 510 395.7 540 391.8C570 388 600 393 630 393.7C660 394.3 690 390.7 720 391.5C750 392.3 780 397.7 810 400.5C840 403.3 870 403.7 885 403.8L900 404L900 451L885 451C870 451 840 451 810 451C780 451 750 451 720 451C690 451 660 451 630 451C600 451 570 451 540 451C510 451 480 451 450 451C420 451 390 451 360 451C330 451 300 451 270 451C240 451 210 451 180 451C150 451 120 451 90 451C60 451 30 451 15 451L0 451Z" fill="#ef4444"></path></svg>